<svg xmlns="http://www.w3.org/2000/svg" width="640" height="420" viewBox="0 0 640 420" role="img">
  <title>CGMA-VSS: latency vs Schnorr group bit width</title>
  <style>
    .bg { fill: #fbf8f1; }
    .grid { stroke: #c9c2b7; stroke-width: 1; fill: none; }
    .axis { stroke: #6b6257; stroke-width: 1.5; fill: none; }
    .label { fill: #342f29; font: 11px ui-sans-serif, -apple-system, sans-serif; }
    .small { fill: #6b6257; font: 10px ui-sans-serif, -apple-system, sans-serif; }
    .title { fill: #342f29; font: bold 13px ui-sans-serif, -apple-system, sans-serif; }
  </style>
  <rect class="bg" x="0" y="0" width="640" height="420" rx="12" />
  <line class="axis" x1="80.0" y1="330.0" x2="610.0" y2="330.0" />
  <line class="axis" x1="80.0" y1="60.0" x2="80.0" y2="330.0" />
  <line class="grid" x1="80.0" y1="330.0" x2="610.0" y2="330.0" />
  <text class="small" x="74.0" y="333.0" text-anchor="end">1.0 µs</text>
  <line class="grid" x1="80.0" y1="276.0" x2="610.0" y2="276.0" />
  <text class="small" x="74.0" y="279.0" text-anchor="end">10.0 µs</text>
  <line class="grid" x1="80.0" y1="222.0" x2="610.0" y2="222.0" />
  <text class="small" x="74.0" y="225.0" text-anchor="end">100.0 µs</text>
  <line class="grid" x1="80.0" y1="168.0" x2="610.0" y2="168.0" />
  <text class="small" x="74.0" y="171.0" text-anchor="end">1.00 ms</text>
  <line class="grid" x1="80.0" y1="114.0" x2="610.0" y2="114.0" />
  <text class="small" x="74.0" y="117.0" text-anchor="end">10.00 ms</text>
  <line class="grid" x1="80.0" y1="60.0" x2="610.0" y2="60.0" />
  <text class="small" x="74.0" y="63.0" text-anchor="end">100.00 ms</text>
  <line class="grid" x1="80.0" y1="60.0" x2="80.0" y2="330.0" />
  <text class="small" x="80.0" y="344.0" text-anchor="middle">5-bit</text>
  <line class="grid" x1="80.8" y1="60.0" x2="80.8" y2="330.0" />
  <text class="small" x="80.8" y="344.0" text-anchor="middle">8-bit</text>
  <line class="grid" x1="344.4" y1="60.0" x2="344.4" y2="330.0" />
  <text class="small" x="344.4" y="344.0" text-anchor="middle">1024-bit</text>
  <line class="grid" x1="610.0" y1="60.0" x2="610.0" y2="330.0" />
  <text class="small" x="610.0" y="344.0" text-anchor="middle">2048-bit</text>
  <path d="M 80.0 289.0 L 80.8 288.3 L 344.4 156.4 L 610.0 165.7" stroke="#0f766e" stroke-width="2" fill="none" />
  <circle cx="80.0" cy="289.0" r="3.5" fill="#0f766e" />
  <circle cx="80.8" cy="288.3" r="3.5" fill="#0f766e" />
  <circle cx="344.4" cy="156.4" r="3.5" fill="#0f766e" />
  <circle cx="610.0" cy="165.7" r="3.5" fill="#0f766e" />
  <path d="M 80.0 251.4 L 80.8 249.5 L 344.4 105.5 L 610.0 110.7" stroke="#1d4ed8" stroke-width="2" fill="none" />
  <circle cx="80.0" cy="251.4" r="3.5" fill="#1d4ed8" />
  <circle cx="80.8" cy="249.5" r="3.5" fill="#1d4ed8" />
  <circle cx="344.4" cy="105.5" r="3.5" fill="#1d4ed8" />
  <circle cx="610.0" cy="110.7" r="3.5" fill="#1d4ed8" />
  <text class="title" x="80.0" y="30.0">CGMA-VSS: latency vs Schnorr group bit width</text>
  <text class="small" x="80.0" y="46.0">k=3, n=5; toy (23) → small (167) → 1024-bit OAKLEY group 2 → 2048-bit RFC 5114 §2.3</text>
  <text class="small" x="345.0" y="362.0" text-anchor="middle">Schnorr prime p bit width</text>
  <text class="small" x="20" y="195.0" transform="rotate(-90 20 195.0)" text-anchor="middle">latency (log scale)</text>
  <rect x="80.0" y="398.0" width="12" height="12" fill="#0f766e" rx="2" />
  <text class="small" x="98.0" y="408.0">split</text>
  <rect x="148.0" y="398.0" width="12" height="12" fill="#1d4ed8" rx="2" />
  <text class="small" x="166.0" y="408.0">reconstruct</text>
</svg>
