<svg xmlns="http://www.w3.org/2000/svg" width="640" height="720" viewBox="0 0 640 720" role="img" aria-labelledby="title desc">
  <title id="title">4 KiB block: split vs reconstruct (ops/sec, log scale)</title>
  <desc id="desc">k=3, n=5, GF(2^127 − 1); 4096 B chunked into 274 × 15-byte field elements</desc>
  <style>
    .bg { fill: #fbf8f1; }
    .grid { fill: none; stroke: #c9c2b7; stroke-width: 1; }
    .axis { stroke: #a79d90; stroke-width: 1; }
    .label { fill: #342f29; font: 11px ui-sans-serif, -apple-system, BlinkMacSystemFont, "Segoe UI", sans-serif; }
    .small { fill: #6b6257; font: 10px ui-sans-serif, -apple-system, BlinkMacSystemFont, "Segoe UI", sans-serif; }
  </style>
  <rect class="bg" x="0" y="0" width="640" height="720" rx="16" />
  <polygon class="grid" points="320.0,253.3 351.8,271.7 351.8,308.3 320.0,326.7 288.2,308.3 288.2,271.7" />
  <polygon class="grid" points="320.0,216.7 383.5,253.3 383.5,326.7 320.0,363.3 256.5,326.7 256.5,253.3" />
  <polygon class="grid" points="320.0,180.0 415.3,235.0 415.3,345.0 320.0,400.0 224.7,345.0 224.7,235.0" />
  <polygon class="grid" points="320.0,143.3 447.0,216.7 447.0,363.3 320.0,436.7 193.0,363.3 193.0,216.7" />
  <polygon class="grid" points="320.0,106.7 478.8,198.3 478.8,381.7 320.0,473.3 161.2,381.7 161.2,198.3" />
  <polygon class="grid" points="320.0,70.0 510.5,180.0 510.5,400.0 320.0,510.0 129.5,400.0 129.5,180.0" />
  <line class="axis" x1="320" y1="290" x2="320.0" y2="70.0" />
  <line class="axis" x1="320" y1="290" x2="510.5" y2="180.0" />
  <line class="axis" x1="320" y1="290" x2="510.5" y2="400.0" />
  <line class="axis" x1="320" y1="290" x2="320.0" y2="510.0" />
  <line class="axis" x1="320" y1="290" x2="129.5" y2="400.0" />
  <line class="axis" x1="320" y1="290" x2="129.5" y2="180.0" />
  <polygon points="320.0,131.5 344.9,275.6 457.9,369.6 320.0,448.9 184.0,368.5 177.7,207.8" fill="#0f766e" fill-opacity="0.18" stroke="#0f766e" stroke-width="2" />
  <circle cx="320.0" cy="131.5" r="3" fill="#0f766e" />
  <circle cx="344.9" cy="275.6" r="3" fill="#0f766e" />
  <circle cx="457.9" cy="369.6" r="3" fill="#0f766e" />
  <circle cx="320.0" cy="448.9" r="3" fill="#0f766e" />
  <circle cx="184.0" cy="368.5" r="3" fill="#0f766e" />
  <circle cx="177.7" cy="207.8" r="3" fill="#0f766e" />
  <polygon points="320.0,157.9 360.1,266.9 434.6,356.2 320.0,411.2 215.7,350.2 191.4,215.7" fill="#b91c1c" fill-opacity="0.18" stroke="#b91c1c" stroke-width="2" />
  <circle cx="320.0" cy="157.9" r="3" fill="#b91c1c" />
  <circle cx="360.1" cy="266.9" r="3" fill="#b91c1c" />
  <circle cx="434.6" cy="356.2" r="3" fill="#b91c1c" />
  <circle cx="320.0" cy="411.2" r="3" fill="#b91c1c" />
  <circle cx="215.7" cy="350.2" r="3" fill="#b91c1c" />
  <circle cx="191.4" cy="215.7" r="3" fill="#b91c1c" />
  <text class="label" x="320.0" y="52.0" text-anchor="middle">shamir</text>
  <text class="label" x="529.6" y="173.0" text-anchor="start">blakley</text>
  <text class="label" x="529.6" y="415.0" text-anchor="start">kothari</text>
  <text class="label" x="320.0" y="536.0" text-anchor="middle">karchmer_wigderson</text>
  <text class="label" x="110.4" y="415.0" text-anchor="end">brickell</text>
  <text class="label" x="110.4" y="173.0" text-anchor="end">massey</text>
  <text class="small" x="324.0" y="253.3">32</text>
  <text class="small" x="324.0" y="216.7">100</text>
  <text class="small" x="324.0" y="180.0">316</text>
  <text class="small" x="324.0" y="143.3">1k</text>
  <text class="small" x="324.0" y="106.7">3k</text>
  <text class="small" x="324.0" y="70.0">10k</text>
  <text class="label" x="20" y="630" font-weight="bold">4 KiB block: split vs reconstruct (ops/sec, log scale)</text>
  <text class="small" x="20" y="645">k=3, n=5, GF(2^127 − 1); 4096 B chunked into 274 × 15-byte field elements</text>
  <rect x="20.0" y="680.0" width="14" height="14" fill="#0f766e" rx="2" />
  <text class="small" x="40.0" y="691.0">split</text>
  <rect x="104.0" y="680.0" width="14" height="14" fill="#b91c1c" rx="2" />
  <text class="small" x="124.0" y="691.0">reconstruct</text>
</svg>
