<svg xmlns="http://www.w3.org/2000/svg" width="640" height="720" viewBox="0 0 640 720" role="img" aria-labelledby="title desc">
  <title id="title">Other schemes: split + reconstruct (ops/sec, log scale)</title>
  <desc id="desc">k=3, n=5; per-axis = scheme; per-polygon = secret-size (ChaCha20Rng, ARM64 release build)</desc>
  <style>
    .bg { fill: #fbf8f1; }
    .grid { fill: none; stroke: #c9c2b7; stroke-width: 1; }
    .axis { stroke: #a79d90; stroke-width: 1; }
    .label { fill: #342f29; font: 11px ui-sans-serif, -apple-system, BlinkMacSystemFont, "Segoe UI", sans-serif; }
    .small { fill: #6b6257; font: 10px ui-sans-serif, -apple-system, BlinkMacSystemFont, "Segoe UI", sans-serif; }
  </style>
  <rect class="bg" x="0" y="0" width="640" height="720" rx="16" />
  <polygon class="grid" points="320.0,253.3 348.7,267.1 355.7,298.2 335.9,323.0 304.1,323.0 284.3,298.2 291.3,267.1" />
  <polygon class="grid" points="320.0,216.7 377.3,244.3 391.5,306.3 351.8,356.1 288.2,356.1 248.5,306.3 262.7,244.3" />
  <polygon class="grid" points="320.0,180.0 406.0,221.4 427.2,314.5 367.7,389.1 272.3,389.1 212.8,314.5 234.0,221.4" />
  <polygon class="grid" points="320.0,143.3 434.7,198.6 463.0,322.6 383.6,422.1 256.4,422.1 177.0,322.6 205.3,198.6" />
  <polygon class="grid" points="320.0,106.7 463.3,175.7 498.7,330.8 399.5,455.2 240.5,455.2 141.3,330.8 176.7,175.7" />
  <polygon class="grid" points="320.0,70.0 492.0,152.8 534.5,339.0 415.5,488.2 224.5,488.2 105.5,339.0 148.0,152.8" />
  <line class="axis" x1="320" y1="290" x2="320.0" y2="70.0" />
  <line class="axis" x1="320" y1="290" x2="492.0" y2="152.8" />
  <line class="axis" x1="320" y1="290" x2="534.5" y2="339.0" />
  <line class="axis" x1="320" y1="290" x2="415.5" y2="488.2" />
  <line class="axis" x1="320" y1="290" x2="224.5" y2="488.2" />
  <line class="axis" x1="320" y1="290" x2="105.5" y2="339.0" />
  <line class="axis" x1="320" y1="290" x2="148.0" y2="152.8" />
  <polygon points="320.0,87.1 457.9,180.0 527.8,337.4 363.5,380.4 272.3,389.1 205.0,316.3 264.8,246.0" fill="#0f766e" fill-opacity="0.18" stroke="#0f766e" stroke-width="2" />
  <circle cx="320.0" cy="87.1" r="3" fill="#0f766e" />
  <circle cx="457.9" cy="180.0" r="3" fill="#0f766e" />
  <circle cx="527.8" cy="337.4" r="3" fill="#0f766e" />
  <circle cx="363.5" cy="380.4" r="3" fill="#0f766e" />
  <circle cx="272.3" cy="389.1" r="3" fill="#0f766e" />
  <circle cx="205.0" cy="316.3" r="3" fill="#0f766e" />
  <circle cx="264.8" cy="246.0" r="3" fill="#0f766e" />
  <polygon points="320.0,107.2 446.9,188.8 513.9,334.3 356.4,365.7 277.1,379.0 205.7,316.1 265.2,246.3" fill="#1d4ed8" fill-opacity="0.18" stroke="#1d4ed8" stroke-width="2" />
  <circle cx="320.0" cy="107.2" r="3" fill="#1d4ed8" />
  <circle cx="446.9" cy="188.8" r="3" fill="#1d4ed8" />
  <circle cx="513.9" cy="334.3" r="3" fill="#1d4ed8" />
  <circle cx="356.4" cy="365.7" r="3" fill="#1d4ed8" />
  <circle cx="277.1" cy="379.0" r="3" fill="#1d4ed8" />
  <circle cx="205.7" cy="316.1" r="3" fill="#1d4ed8" />
  <circle cx="265.2" cy="246.3" r="3" fill="#1d4ed8" />
  <polygon points="320.0,134.2 434.0,199.1 503.2,331.8 348.3,348.8 281.9,369.0 221.2,312.5 264.4,245.6" fill="#b45309" fill-opacity="0.18" stroke="#b45309" stroke-width="2" />
  <circle cx="320.0" cy="134.2" r="3" fill="#b45309" />
  <circle cx="434.0" cy="199.1" r="3" fill="#b45309" />
  <circle cx="503.2" cy="331.8" r="3" fill="#b45309" />
  <circle cx="348.3" cy="348.8" r="3" fill="#b45309" />
  <circle cx="281.9" cy="369.0" r="3" fill="#b45309" />
  <circle cx="221.2" cy="312.5" r="3" fill="#b45309" />
  <circle cx="264.4" cy="245.6" r="3" fill="#b45309" />
  <polygon points="320.0,144.5 415.2,214.1 488.0,328.3 334.6,320.4 287.5,357.5 231.0,310.3 263.8,245.2" fill="#b91c1c" fill-opacity="0.18" stroke="#b91c1c" stroke-width="2" />
  <circle cx="320.0" cy="144.5" r="3" fill="#b91c1c" />
  <circle cx="415.2" cy="214.1" r="3" fill="#b91c1c" />
  <circle cx="488.0" cy="328.3" r="3" fill="#b91c1c" />
  <circle cx="334.6" cy="320.4" r="3" fill="#b91c1c" />
  <circle cx="287.5" cy="357.5" r="3" fill="#b91c1c" />
  <circle cx="231.0" cy="310.3" r="3" fill="#b91c1c" />
  <circle cx="263.8" cy="245.2" r="3" fill="#b91c1c" />
  <text class="label" x="320.0" y="52.0" text-anchor="middle">trivial (n-of-n)</text>
  <text class="label" x="509.2" y="143.1" text-anchor="start">ito (k-of-n via ISN)</text>
  <text class="label" x="555.9" y="347.9" text-anchor="start">benaloh_leichter (2-of-3)</text>
  <text class="label" x="425.0" y="512.0" text-anchor="start">proactive (refresh/recover)</text>
  <text class="label" x="215.0" y="512.0" text-anchor="end">bytes (chunked Shamir)</text>
  <text class="label" x="84.1" y="347.9" text-anchor="end">ida (Reed-Solomon)</text>
  <text class="label" x="130.8" y="143.1" text-anchor="end">decode (Berlekamp-Welch, t=1)</text>
  <text class="small" x="324.0" y="253.3">464</text>
  <text class="small" x="324.0" y="216.7">2k</text>
  <text class="small" x="324.0" y="180.0">10k</text>
  <text class="small" x="324.0" y="143.3">46k</text>
  <text class="small" x="324.0" y="106.7">215k</text>
  <text class="small" x="324.0" y="70.0">1.0M</text>
  <text class="label" x="20" y="630" font-weight="bold">Other schemes: split + reconstruct (ops/sec, log scale)</text>
  <text class="small" x="20" y="645">k=3, n=5; per-axis = scheme; per-polygon = secret-size (ChaCha20Rng, ARM64 release build)</text>
  <rect x="20.0" y="680.0" width="14" height="14" fill="#0f766e" rx="2" />
  <text class="small" x="40.0" y="691.0">128-bit</text>
  <rect x="120.0" y="680.0" width="14" height="14" fill="#1d4ed8" rx="2" />
  <text class="small" x="140.0" y="691.0">256-bit</text>
  <rect x="220.0" y="680.0" width="14" height="14" fill="#b45309" rx="2" />
  <text class="small" x="240.0" y="691.0">512-bit</text>
  <rect x="320.0" y="680.0" width="14" height="14" fill="#b91c1c" rx="2" />
  <text class="small" x="340.0" y="691.0">1024-bit</text>
</svg>
