<svg xmlns="http://www.w3.org/2000/svg" width="640" height="720" viewBox="0 0 640 720" role="img" aria-labelledby="title desc">
  <title id="title">Other schemes: split + reconstruct (ops/sec, log scale)</title>
  <desc id="desc">k=3, n=5; per-axis = scheme; per-polygon = secret-size (ChaCha20Rng, ARM64 release build)</desc>
  <style>
    .bg { fill: #fbf8f1; }
    .grid { fill: none; stroke: #c9c2b7; stroke-width: 1; }
    .axis { stroke: #a79d90; stroke-width: 1; }
    .label { fill: #342f29; font: 11px ui-sans-serif, -apple-system, BlinkMacSystemFont, "Segoe UI", sans-serif; }
    .small { fill: #6b6257; font: 10px ui-sans-serif, -apple-system, BlinkMacSystemFont, "Segoe UI", sans-serif; }
  </style>
  <rect class="bg" x="0" y="0" width="640" height="720" rx="16" />
  <polygon class="grid" points="320.0,253.3 348.7,267.1 355.7,298.2 335.9,323.0 304.1,323.0 284.3,298.2 291.3,267.1" />
  <polygon class="grid" points="320.0,216.7 377.3,244.3 391.5,306.3 351.8,356.1 288.2,356.1 248.5,306.3 262.7,244.3" />
  <polygon class="grid" points="320.0,180.0 406.0,221.4 427.2,314.5 367.7,389.1 272.3,389.1 212.8,314.5 234.0,221.4" />
  <polygon class="grid" points="320.0,143.3 434.7,198.6 463.0,322.6 383.6,422.1 256.4,422.1 177.0,322.6 205.3,198.6" />
  <polygon class="grid" points="320.0,106.7 463.3,175.7 498.7,330.8 399.5,455.2 240.5,455.2 141.3,330.8 176.7,175.7" />
  <polygon class="grid" points="320.0,70.0 492.0,152.8 534.5,339.0 415.5,488.2 224.5,488.2 105.5,339.0 148.0,152.8" />
  <line class="axis" x1="320" y1="290" x2="320.0" y2="70.0" />
  <line class="axis" x1="320" y1="290" x2="492.0" y2="152.8" />
  <line class="axis" x1="320" y1="290" x2="534.5" y2="339.0" />
  <line class="axis" x1="320" y1="290" x2="415.5" y2="488.2" />
  <line class="axis" x1="320" y1="290" x2="224.5" y2="488.2" />
  <line class="axis" x1="320" y1="290" x2="105.5" y2="339.0" />
  <line class="axis" x1="320" y1="290" x2="148.0" y2="152.8" />
  <polygon points="320.0,90.2 456.1,181.5 524.4,336.7 363.7,380.7 272.7,388.2 205.2,316.2 265.4,246.5" fill="#0f766e" fill-opacity="0.18" stroke="#0f766e" stroke-width="2" />
  <circle cx="320.0" cy="90.2" r="3" fill="#0f766e" />
  <circle cx="456.1" cy="181.5" r="3" fill="#0f766e" />
  <circle cx="524.4" cy="336.7" r="3" fill="#0f766e" />
  <circle cx="363.7" cy="380.7" r="3" fill="#0f766e" />
  <circle cx="272.7" cy="388.2" r="3" fill="#0f766e" />
  <circle cx="205.2" cy="316.2" r="3" fill="#0f766e" />
  <circle cx="265.4" cy="246.5" r="3" fill="#0f766e" />
  <polygon points="320.0,104.3 445.7,189.7 512.0,333.8 357.0,366.8 276.8,379.7 205.4,316.2 265.3,246.4" fill="#1d4ed8" fill-opacity="0.18" stroke="#1d4ed8" stroke-width="2" />
  <circle cx="320.0" cy="104.3" r="3" fill="#1d4ed8" />
  <circle cx="445.7" cy="189.7" r="3" fill="#1d4ed8" />
  <circle cx="512.0" cy="333.8" r="3" fill="#1d4ed8" />
  <circle cx="357.0" cy="366.8" r="3" fill="#1d4ed8" />
  <circle cx="276.8" cy="379.7" r="3" fill="#1d4ed8" />
  <circle cx="205.4" cy="316.2" r="3" fill="#1d4ed8" />
  <circle cx="265.3" cy="246.4" r="3" fill="#1d4ed8" />
  <polygon points="320.0,134.8 433.2,199.7 502.4,331.6 347.6,347.3 282.2,368.5 221.4,312.5 265.5,246.5" fill="#b45309" fill-opacity="0.18" stroke="#b45309" stroke-width="2" />
  <circle cx="320.0" cy="134.8" r="3" fill="#b45309" />
  <circle cx="433.2" cy="199.7" r="3" fill="#b45309" />
  <circle cx="502.4" cy="331.6" r="3" fill="#b45309" />
  <circle cx="347.6" cy="347.3" r="3" fill="#b45309" />
  <circle cx="282.2" cy="368.5" r="3" fill="#b45309" />
  <circle cx="221.4" cy="312.5" r="3" fill="#b45309" />
  <circle cx="265.5" cy="246.5" r="3" fill="#b45309" />
  <polygon points="320.0,145.1 416.2,213.3 488.9,328.5 335.1,321.4 288.3,355.8 230.9,310.3 265.3,246.4" fill="#b91c1c" fill-opacity="0.18" stroke="#b91c1c" stroke-width="2" />
  <circle cx="320.0" cy="145.1" r="3" fill="#b91c1c" />
  <circle cx="416.2" cy="213.3" r="3" fill="#b91c1c" />
  <circle cx="488.9" cy="328.5" r="3" fill="#b91c1c" />
  <circle cx="335.1" cy="321.4" r="3" fill="#b91c1c" />
  <circle cx="288.3" cy="355.8" r="3" fill="#b91c1c" />
  <circle cx="230.9" cy="310.3" r="3" fill="#b91c1c" />
  <circle cx="265.3" cy="246.4" r="3" fill="#b91c1c" />
  <text class="label" x="320.0" y="52.0" text-anchor="middle">trivial (n-of-n)</text>
  <text class="label" x="509.2" y="143.1" text-anchor="start">ito (k-of-n via ISN)</text>
  <text class="label" x="555.9" y="347.9" text-anchor="start">benaloh_leichter (2-of-3)</text>
  <text class="label" x="425.0" y="512.0" text-anchor="start">proactive (refresh/recover)</text>
  <text class="label" x="215.0" y="512.0" text-anchor="end">bytes (chunked Shamir)</text>
  <text class="label" x="84.1" y="347.9" text-anchor="end">ida (Reed-Solomon)</text>
  <text class="label" x="130.8" y="143.1" text-anchor="end">decode (Berlekamp-Welch, t=1)</text>
  <text class="small" x="324.0" y="253.3">464</text>
  <text class="small" x="324.0" y="216.7">2k</text>
  <text class="small" x="324.0" y="180.0">10k</text>
  <text class="small" x="324.0" y="143.3">46k</text>
  <text class="small" x="324.0" y="106.7">215k</text>
  <text class="small" x="324.0" y="70.0">1.0M</text>
  <text class="label" x="20" y="630" font-weight="bold">Other schemes: split + reconstruct (ops/sec, log scale)</text>
  <text class="small" x="20" y="645">k=3, n=5; per-axis = scheme; per-polygon = secret-size (ChaCha20Rng, ARM64 release build)</text>
  <rect x="20.0" y="680.0" width="14" height="14" fill="#0f766e" rx="2" />
  <text class="small" x="40.0" y="691.0">128-bit</text>
  <rect x="120.0" y="680.0" width="14" height="14" fill="#1d4ed8" rx="2" />
  <text class="small" x="140.0" y="691.0">256-bit</text>
  <rect x="220.0" y="680.0" width="14" height="14" fill="#b45309" rx="2" />
  <text class="small" x="240.0" y="691.0">512-bit</text>
  <rect x="320.0" y="680.0" width="14" height="14" fill="#b91c1c" rx="2" />
  <text class="small" x="340.0" y="691.0">1024-bit</text>
</svg>
