<svg xmlns="http://www.w3.org/2000/svg" width="640" height="720" viewBox="0 0 640 720" role="img" aria-labelledby="title desc">
  <title id="title">Other schemes: split + reconstruct (ops/sec, log scale)</title>
  <desc id="desc">k=3, n=5; per-axis = scheme; per-polygon = secret-size (ChaCha20Rng, ARM64 release build)</desc>
  <style>
    .bg { fill: #fbf8f1; }
    .grid { fill: none; stroke: #c9c2b7; stroke-width: 1; }
    .axis { stroke: #a79d90; stroke-width: 1; }
    .label { fill: #342f29; font: 11px ui-sans-serif, -apple-system, BlinkMacSystemFont, "Segoe UI", sans-serif; }
    .small { fill: #6b6257; font: 10px ui-sans-serif, -apple-system, BlinkMacSystemFont, "Segoe UI", sans-serif; }
  </style>
  <rect class="bg" x="0" y="0" width="640" height="720" rx="16" />
  <polygon class="grid" points="320.0,253.3 348.7,267.1 355.7,298.2 335.9,323.0 304.1,323.0 284.3,298.2 291.3,267.1" />
  <polygon class="grid" points="320.0,216.7 377.3,244.3 391.5,306.3 351.8,356.1 288.2,356.1 248.5,306.3 262.7,244.3" />
  <polygon class="grid" points="320.0,180.0 406.0,221.4 427.2,314.5 367.7,389.1 272.3,389.1 212.8,314.5 234.0,221.4" />
  <polygon class="grid" points="320.0,143.3 434.7,198.6 463.0,322.6 383.6,422.1 256.4,422.1 177.0,322.6 205.3,198.6" />
  <polygon class="grid" points="320.0,106.7 463.3,175.7 498.7,330.8 399.5,455.2 240.5,455.2 141.3,330.8 176.7,175.7" />
  <polygon class="grid" points="320.0,70.0 492.0,152.8 534.5,339.0 415.5,488.2 224.5,488.2 105.5,339.0 148.0,152.8" />
  <line class="axis" x1="320" y1="290" x2="320.0" y2="70.0" />
  <line class="axis" x1="320" y1="290" x2="492.0" y2="152.8" />
  <line class="axis" x1="320" y1="290" x2="534.5" y2="339.0" />
  <line class="axis" x1="320" y1="290" x2="415.5" y2="488.2" />
  <line class="axis" x1="320" y1="290" x2="224.5" y2="488.2" />
  <line class="axis" x1="320" y1="290" x2="105.5" y2="339.0" />
  <line class="axis" x1="320" y1="290" x2="148.0" y2="152.8" />
  <polygon points="320.0,87.1 458.0,179.9 528.5,337.6 379.4,413.3 255.5,424.0 155.7,327.5 226.8,215.7" fill="#0f766e" fill-opacity="0.18" stroke="#0f766e" stroke-width="2" />
  <circle cx="320.0" cy="87.1" r="3" fill="#0f766e" />
  <circle cx="458.0" cy="179.9" r="3" fill="#0f766e" />
  <circle cx="528.5" cy="337.6" r="3" fill="#0f766e" />
  <circle cx="379.4" cy="413.3" r="3" fill="#0f766e" />
  <circle cx="255.5" cy="424.0" r="3" fill="#0f766e" />
  <circle cx="155.7" cy="327.5" r="3" fill="#0f766e" />
  <circle cx="226.8" cy="215.7" r="3" fill="#0f766e" />
  <polygon points="320.0,102.1 447.4,188.4 514.8,334.5 357.7,368.4 259.6,415.4 156.2,327.4 226.8,215.7" fill="#1d4ed8" fill-opacity="0.18" stroke="#1d4ed8" stroke-width="2" />
  <circle cx="320.0" cy="102.1" r="3" fill="#1d4ed8" />
  <circle cx="447.4" cy="188.4" r="3" fill="#1d4ed8" />
  <circle cx="514.8" cy="334.5" r="3" fill="#1d4ed8" />
  <circle cx="357.7" cy="368.4" r="3" fill="#1d4ed8" />
  <circle cx="259.6" cy="415.4" r="3" fill="#1d4ed8" />
  <circle cx="156.2" cy="327.4" r="3" fill="#1d4ed8" />
  <circle cx="226.8" cy="215.7" r="3" fill="#1d4ed8" />
  <polygon points="320.0,127.8 434.0,199.1 504.8,332.2 348.6,349.4 264.9,404.5 171.9,323.8 226.8,215.6" fill="#b45309" fill-opacity="0.18" stroke="#b45309" stroke-width="2" />
  <circle cx="320.0" cy="127.8" r="3" fill="#b45309" />
  <circle cx="434.0" cy="199.1" r="3" fill="#b45309" />
  <circle cx="504.8" cy="332.2" r="3" fill="#b45309" />
  <circle cx="348.6" cy="349.4" r="3" fill="#b45309" />
  <circle cx="264.9" cy="404.5" r="3" fill="#b45309" />
  <circle cx="171.9" cy="323.8" r="3" fill="#b45309" />
  <circle cx="226.8" cy="215.6" r="3" fill="#b45309" />
  <polygon points="320.0,144.0 416.8,212.8 490.0,328.8 335.5,322.2 271.0,391.7 181.4,321.6 226.7,215.6" fill="#b91c1c" fill-opacity="0.18" stroke="#b91c1c" stroke-width="2" />
  <circle cx="320.0" cy="144.0" r="3" fill="#b91c1c" />
  <circle cx="416.8" cy="212.8" r="3" fill="#b91c1c" />
  <circle cx="490.0" cy="328.8" r="3" fill="#b91c1c" />
  <circle cx="335.5" cy="322.2" r="3" fill="#b91c1c" />
  <circle cx="271.0" cy="391.7" r="3" fill="#b91c1c" />
  <circle cx="181.4" cy="321.6" r="3" fill="#b91c1c" />
  <circle cx="226.7" cy="215.6" r="3" fill="#b91c1c" />
  <text class="label" x="320.0" y="52.0" text-anchor="middle">trivial (n-of-n)</text>
  <text class="label" x="509.2" y="143.1" text-anchor="start">ito (k-of-n via ISN)</text>
  <text class="label" x="555.9" y="347.9" text-anchor="start">benaloh_leichter (2-of-3)</text>
  <text class="label" x="425.0" y="512.0" text-anchor="start">proactive (refresh/recover)</text>
  <text class="label" x="215.0" y="512.0" text-anchor="end">bytes (chunked Shamir)</text>
  <text class="label" x="84.1" y="347.9" text-anchor="end">ida (Reed-Solomon)</text>
  <text class="label" x="130.8" y="143.1" text-anchor="end">decode (Berlekamp-Welch, t=1)</text>
  <text class="small" x="324.0" y="253.3">464</text>
  <text class="small" x="324.0" y="216.7">2k</text>
  <text class="small" x="324.0" y="180.0">10k</text>
  <text class="small" x="324.0" y="143.3">46k</text>
  <text class="small" x="324.0" y="106.7">215k</text>
  <text class="small" x="324.0" y="70.0">1.0M</text>
  <text class="label" x="20" y="630" font-weight="bold">Other schemes: split + reconstruct (ops/sec, log scale)</text>
  <text class="small" x="20" y="645">k=3, n=5; per-axis = scheme; per-polygon = secret-size (ChaCha20Rng, ARM64 release build)</text>
  <rect x="20.0" y="680.0" width="14" height="14" fill="#0f766e" rx="2" />
  <text class="small" x="40.0" y="691.0">128-bit</text>
  <rect x="120.0" y="680.0" width="14" height="14" fill="#1d4ed8" rx="2" />
  <text class="small" x="140.0" y="691.0">256-bit</text>
  <rect x="220.0" y="680.0" width="14" height="14" fill="#b45309" rx="2" />
  <text class="small" x="240.0" y="691.0">512-bit</text>
  <rect x="320.0" y="680.0" width="14" height="14" fill="#b91c1c" rx="2" />
  <text class="small" x="340.0" y="691.0">1024-bit</text>
</svg>
