<svg xmlns="http://www.w3.org/2000/svg" width="640" height="720" viewBox="0 0 640 720" role="img" aria-labelledby="title desc">
  <title id="title">Ramp / vector schemes: split + reconstruct (ops/sec, log scale)</title>
  <desc id="desc">k=3, n=5; per-axis = scheme; per-polygon = secret-size (ChaCha20Rng, ARM64 release build)</desc>
  <style>
    .bg { fill: #fbf8f1; }
    .grid { fill: none; stroke: #c9c2b7; stroke-width: 1; }
    .axis { stroke: #a79d90; stroke-width: 1; }
    .label { fill: #342f29; font: 11px ui-sans-serif, -apple-system, BlinkMacSystemFont, "Segoe UI", sans-serif; }
    .small { fill: #6b6257; font: 10px ui-sans-serif, -apple-system, BlinkMacSystemFont, "Segoe UI", sans-serif; }
  </style>
  <rect class="bg" x="0" y="0" width="640" height="720" rx="16" />
  <polygon class="grid" points="320.0,253.3 356.7,290.0 320.0,326.7 283.3,290.0" />
  <polygon class="grid" points="320.0,216.7 393.3,290.0 320.0,363.3 246.7,290.0" />
  <polygon class="grid" points="320.0,180.0 430.0,290.0 320.0,400.0 210.0,290.0" />
  <polygon class="grid" points="320.0,143.3 466.7,290.0 320.0,436.7 173.3,290.0" />
  <polygon class="grid" points="320.0,106.7 503.3,290.0 320.0,473.3 136.7,290.0" />
  <polygon class="grid" points="320.0,70.0 540.0,290.0 320.0,510.0 100.0,290.0" />
  <line class="axis" x1="320" y1="290" x2="320.0" y2="70.0" />
  <line class="axis" x1="320" y1="290" x2="540.0" y2="290.0" />
  <line class="axis" x1="320" y1="290" x2="320.0" y2="510.0" />
  <line class="axis" x1="320" y1="290" x2="100.0" y2="290.0" />
  <polygon points="320.0,107.4 502.3,290.0 320.0,437.1 131.8,290.0" fill="#0f766e" fill-opacity="0.18" stroke="#0f766e" stroke-width="2" />
  <circle cx="320.0" cy="107.4" r="3" fill="#0f766e" />
  <circle cx="502.3" cy="290.0" r="3" fill="#0f766e" />
  <circle cx="320.0" cy="437.1" r="3" fill="#0f766e" />
  <circle cx="131.8" cy="290.0" r="3" fill="#0f766e" />
  <polygon points="320.0,157.9 451.8,290.0 320.0,400.3 187.4,290.0" fill="#1d4ed8" fill-opacity="0.18" stroke="#1d4ed8" stroke-width="2" />
  <circle cx="320.0" cy="157.9" r="3" fill="#1d4ed8" />
  <circle cx="451.8" cy="290.0" r="3" fill="#1d4ed8" />
  <circle cx="320.0" cy="400.3" r="3" fill="#1d4ed8" />
  <circle cx="187.4" cy="290.0" r="3" fill="#1d4ed8" />
  <polygon points="320.0,178.7 431.2,290.0 320.0,366.2 208.4,290.0" fill="#b45309" fill-opacity="0.18" stroke="#b45309" stroke-width="2" />
  <circle cx="320.0" cy="178.7" r="3" fill="#b45309" />
  <circle cx="431.2" cy="290.0" r="3" fill="#b45309" />
  <circle cx="320.0" cy="366.2" r="3" fill="#b45309" />
  <circle cx="208.4" cy="290.0" r="3" fill="#b45309" />
  <polygon points="320.0,208.9 401.1,290.0 320.0,332.4 238.9,290.0" fill="#b91c1c" fill-opacity="0.18" stroke="#b91c1c" stroke-width="2" />
  <circle cx="320.0" cy="208.9" r="3" fill="#b91c1c" />
  <circle cx="401.1" cy="290.0" r="3" fill="#b91c1c" />
  <circle cx="320.0" cy="332.4" r="3" fill="#b91c1c" />
  <circle cx="238.9" cy="290.0" r="3" fill="#b91c1c" />
  <text class="label" x="320.0" y="52.0" text-anchor="middle">ramp</text>
  <text class="label" x="562.0" y="294.0" text-anchor="start">yamamoto</text>
  <text class="label" x="320.0" y="536.0" text-anchor="middle">blakley_meadows</text>
  <text class="label" x="78.0" y="294.0" text-anchor="end">kgh (matrix)</text>
  <text class="small" x="324.0" y="253.3">46</text>
  <text class="small" x="324.0" y="216.7">215</text>
  <text class="small" x="324.0" y="180.0">1k</text>
  <text class="small" x="324.0" y="143.3">5k</text>
  <text class="small" x="324.0" y="106.7">22k</text>
  <text class="small" x="324.0" y="70.0">100k</text>
  <text class="label" x="20" y="630" font-weight="bold">Ramp / vector schemes: split + reconstruct (ops/sec, log scale)</text>
  <text class="small" x="20" y="645">k=3, n=5; per-axis = scheme; per-polygon = secret-size (ChaCha20Rng, ARM64 release build)</text>
  <rect x="20.0" y="680.0" width="14" height="14" fill="#0f766e" rx="2" />
  <text class="small" x="40.0" y="691.0">128-bit</text>
  <rect x="120.0" y="680.0" width="14" height="14" fill="#1d4ed8" rx="2" />
  <text class="small" x="140.0" y="691.0">256-bit</text>
  <rect x="220.0" y="680.0" width="14" height="14" fill="#b45309" rx="2" />
  <text class="small" x="240.0" y="691.0">512-bit</text>
  <rect x="320.0" y="680.0" width="14" height="14" fill="#b91c1c" rx="2" />
  <text class="small" x="340.0" y="691.0">1024-bit</text>
</svg>
