<svg xmlns="http://www.w3.org/2000/svg" width="640" height="720" viewBox="0 0 640 720" role="img" aria-labelledby="title desc">
  <title id="title">Threshold schemes: split + reconstruct (ops/sec, log scale)</title>
  <desc id="desc">k=3, n=5; per-axis = scheme; per-polygon = secret-size (ChaCha20Rng, ARM64 release build)</desc>
  <style>
    .bg { fill: #fbf8f1; }
    .grid { fill: none; stroke: #c9c2b7; stroke-width: 1; }
    .axis { stroke: #a79d90; stroke-width: 1; }
    .label { fill: #342f29; font: 11px ui-sans-serif, -apple-system, BlinkMacSystemFont, "Segoe UI", sans-serif; }
    .small { fill: #6b6257; font: 10px ui-sans-serif, -apple-system, BlinkMacSystemFont, "Segoe UI", sans-serif; }
  </style>
  <rect class="bg" x="0" y="0" width="640" height="720" rx="16" />
  <polygon class="grid" points="320.0,253.3 351.8,271.7 351.8,308.3 320.0,326.7 288.2,308.3 288.2,271.7" />
  <polygon class="grid" points="320.0,216.7 383.5,253.3 383.5,326.7 320.0,363.3 256.5,326.7 256.5,253.3" />
  <polygon class="grid" points="320.0,180.0 415.3,235.0 415.3,345.0 320.0,400.0 224.7,345.0 224.7,235.0" />
  <polygon class="grid" points="320.0,143.3 447.0,216.7 447.0,363.3 320.0,436.7 193.0,363.3 193.0,216.7" />
  <polygon class="grid" points="320.0,106.7 478.8,198.3 478.8,381.7 320.0,473.3 161.2,381.7 161.2,198.3" />
  <polygon class="grid" points="320.0,70.0 510.5,180.0 510.5,400.0 320.0,510.0 129.5,400.0 129.5,180.0" />
  <line class="axis" x1="320" y1="290" x2="320.0" y2="70.0" />
  <line class="axis" x1="320" y1="290" x2="510.5" y2="180.0" />
  <line class="axis" x1="320" y1="290" x2="510.5" y2="400.0" />
  <line class="axis" x1="320" y1="290" x2="320.0" y2="510.0" />
  <line class="axis" x1="320" y1="290" x2="129.5" y2="400.0" />
  <line class="axis" x1="320" y1="290" x2="129.5" y2="180.0" />
  <polygon points="320.0,108.0 440.9,220.2 473.8,378.8 320.0,460.3 171.2,375.9 157.7,196.3" fill="#0f766e" fill-opacity="0.18" stroke="#0f766e" stroke-width="2" />
  <circle cx="320.0" cy="108.0" r="3" fill="#0f766e" />
  <circle cx="440.9" cy="220.2" r="3" fill="#0f766e" />
  <circle cx="473.8" cy="378.8" r="3" fill="#0f766e" />
  <circle cx="320.0" cy="460.3" r="3" fill="#0f766e" />
  <circle cx="171.2" cy="375.9" r="3" fill="#0f766e" />
  <circle cx="157.7" cy="196.3" r="3" fill="#0f766e" />
  <polygon points="320.0,123.9 415.1,235.1 460.4,371.0 320.0,445.1 184.9,368.0 171.5,204.3" fill="#1d4ed8" fill-opacity="0.18" stroke="#1d4ed8" stroke-width="2" />
  <circle cx="320.0" cy="123.9" r="3" fill="#1d4ed8" />
  <circle cx="415.1" cy="235.1" r="3" fill="#1d4ed8" />
  <circle cx="460.4" cy="371.0" r="3" fill="#1d4ed8" />
  <circle cx="320.0" cy="445.1" r="3" fill="#1d4ed8" />
  <circle cx="184.9" cy="368.0" r="3" fill="#1d4ed8" />
  <circle cx="171.5" cy="204.3" r="3" fill="#1d4ed8" />
  <polygon points="320.0,144.4 385.4,252.2 441.2,360.0 320.0,424.0 203.5,357.3 190.2,215.1" fill="#b45309" fill-opacity="0.18" stroke="#b45309" stroke-width="2" />
  <circle cx="320.0" cy="144.4" r="3" fill="#b45309" />
  <circle cx="385.4" cy="252.2" r="3" fill="#b45309" />
  <circle cx="441.2" cy="360.0" r="3" fill="#b45309" />
  <circle cx="320.0" cy="424.0" r="3" fill="#b45309" />
  <circle cx="203.5" cy="357.3" r="3" fill="#b45309" />
  <circle cx="190.2" cy="215.1" r="3" fill="#b45309" />
  <polygon points="320.0,174.8 356.1,269.1 415.1,344.9 320.0,393.7 229.9,342.0 216.5,230.3" fill="#b91c1c" fill-opacity="0.18" stroke="#b91c1c" stroke-width="2" />
  <circle cx="320.0" cy="174.8" r="3" fill="#b91c1c" />
  <circle cx="356.1" cy="269.1" r="3" fill="#b91c1c" />
  <circle cx="415.1" cy="344.9" r="3" fill="#b91c1c" />
  <circle cx="320.0" cy="393.7" r="3" fill="#b91c1c" />
  <circle cx="229.9" cy="342.0" r="3" fill="#b91c1c" />
  <circle cx="216.5" cy="230.3" r="3" fill="#b91c1c" />
  <text class="label" x="320.0" y="52.0" text-anchor="middle">shamir</text>
  <text class="label" x="529.6" y="173.0" text-anchor="start">blakley</text>
  <text class="label" x="529.6" y="415.0" text-anchor="start">kothari</text>
  <text class="label" x="320.0" y="536.0" text-anchor="middle">karchmer_wigderson</text>
  <text class="label" x="110.4" y="415.0" text-anchor="end">brickell</text>
  <text class="label" x="110.4" y="173.0" text-anchor="end">massey</text>
  <text class="small" x="324.0" y="253.3">46</text>
  <text class="small" x="324.0" y="216.7">215</text>
  <text class="small" x="324.0" y="180.0">1k</text>
  <text class="small" x="324.0" y="143.3">5k</text>
  <text class="small" x="324.0" y="106.7">22k</text>
  <text class="small" x="324.0" y="70.0">100k</text>
  <text class="label" x="20" y="630" font-weight="bold">Threshold schemes: split + reconstruct (ops/sec, log scale)</text>
  <text class="small" x="20" y="645">k=3, n=5; per-axis = scheme; per-polygon = secret-size (ChaCha20Rng, ARM64 release build)</text>
  <rect x="20.0" y="680.0" width="14" height="14" fill="#0f766e" rx="2" />
  <text class="small" x="40.0" y="691.0">128-bit</text>
  <rect x="120.0" y="680.0" width="14" height="14" fill="#1d4ed8" rx="2" />
  <text class="small" x="140.0" y="691.0">256-bit</text>
  <rect x="220.0" y="680.0" width="14" height="14" fill="#b45309" rx="2" />
  <text class="small" x="240.0" y="691.0">512-bit</text>
  <rect x="320.0" y="680.0" width="14" height="14" fill="#b91c1c" rx="2" />
  <text class="small" x="340.0" y="691.0">1024-bit</text>
</svg>
