<svg xmlns="http://www.w3.org/2000/svg" width="640" height="720" viewBox="0 0 640 720" role="img" aria-labelledby="title desc">
  <title id="title">Threshold schemes: split + reconstruct (ops/sec, log scale)</title>
  <desc id="desc">k=3, n=5; per-axis = scheme; per-polygon = secret-size (ChaCha20Rng, ARM64 release build)</desc>
  <style>
    .bg { fill: #fbf8f1; }
    .grid { fill: none; stroke: #c9c2b7; stroke-width: 1; }
    .axis { stroke: #a79d90; stroke-width: 1; }
    .label { fill: #342f29; font: 11px ui-sans-serif, -apple-system, BlinkMacSystemFont, "Segoe UI", sans-serif; }
    .small { fill: #6b6257; font: 10px ui-sans-serif, -apple-system, BlinkMacSystemFont, "Segoe UI", sans-serif; }
  </style>
  <rect class="bg" x="0" y="0" width="640" height="720" rx="16" />
  <polygon class="grid" points="320.0,253.3 351.8,271.7 351.8,308.3 320.0,326.7 288.2,308.3 288.2,271.7" />
  <polygon class="grid" points="320.0,216.7 383.5,253.3 383.5,326.7 320.0,363.3 256.5,326.7 256.5,253.3" />
  <polygon class="grid" points="320.0,180.0 415.3,235.0 415.3,345.0 320.0,400.0 224.7,345.0 224.7,235.0" />
  <polygon class="grid" points="320.0,143.3 447.0,216.7 447.0,363.3 320.0,436.7 193.0,363.3 193.0,216.7" />
  <polygon class="grid" points="320.0,106.7 478.8,198.3 478.8,381.7 320.0,473.3 161.2,381.7 161.2,198.3" />
  <polygon class="grid" points="320.0,70.0 510.5,180.0 510.5,400.0 320.0,510.0 129.5,400.0 129.5,180.0" />
  <line class="axis" x1="320" y1="290" x2="320.0" y2="70.0" />
  <line class="axis" x1="320" y1="290" x2="510.5" y2="180.0" />
  <line class="axis" x1="320" y1="290" x2="510.5" y2="400.0" />
  <line class="axis" x1="320" y1="290" x2="320.0" y2="510.0" />
  <line class="axis" x1="320" y1="290" x2="129.5" y2="400.0" />
  <line class="axis" x1="320" y1="290" x2="129.5" y2="180.0" />
  <polygon points="320.0,139.7 395.5,246.4 459.1,370.3 320.0,442.2 188.6,365.8 169.7,203.2" fill="#0f766e" fill-opacity="0.18" stroke="#0f766e" stroke-width="2" />
  <circle cx="320.0" cy="139.7" r="3" fill="#0f766e" />
  <circle cx="395.5" cy="246.4" r="3" fill="#0f766e" />
  <circle cx="459.1" cy="370.3" r="3" fill="#0f766e" />
  <circle cx="320.0" cy="442.2" r="3" fill="#0f766e" />
  <circle cx="188.6" cy="365.8" r="3" fill="#0f766e" />
  <circle cx="169.7" cy="203.2" r="3" fill="#0f766e" />
  <polygon points="320.0,167.7 369.0,261.7 459.3,370.4 320.0,445.0 186.1,367.3 167.7,202.1" fill="#1d4ed8" fill-opacity="0.18" stroke="#1d4ed8" stroke-width="2" />
  <circle cx="320.0" cy="167.7" r="3" fill="#1d4ed8" />
  <circle cx="369.0" cy="261.7" r="3" fill="#1d4ed8" />
  <circle cx="459.3" cy="370.4" r="3" fill="#1d4ed8" />
  <circle cx="320.0" cy="445.0" r="3" fill="#1d4ed8" />
  <circle cx="186.1" cy="367.3" r="3" fill="#1d4ed8" />
  <circle cx="167.7" cy="202.1" r="3" fill="#1d4ed8" />
  <polygon points="320.0,140.7 349.1,273.2 460.5,371.1 320.0,445.5 185.8,367.5 166.5,201.4" fill="#b45309" fill-opacity="0.18" stroke="#b45309" stroke-width="2" />
  <circle cx="320.0" cy="140.7" r="3" fill="#b45309" />
  <circle cx="349.1" cy="273.2" r="3" fill="#b45309" />
  <circle cx="460.5" cy="371.1" r="3" fill="#b45309" />
  <circle cx="320.0" cy="445.5" r="3" fill="#b45309" />
  <circle cx="185.8" cy="367.5" r="3" fill="#b45309" />
  <circle cx="166.5" cy="201.4" r="3" fill="#b45309" />
  <polygon points="320.0,154.6 326.3,286.3 452.3,366.4 320.0,439.7 190.5,364.8 174.1,205.8" fill="#b91c1c" fill-opacity="0.18" stroke="#b91c1c" stroke-width="2" />
  <circle cx="320.0" cy="154.6" r="3" fill="#b91c1c" />
  <circle cx="326.3" cy="286.3" r="3" fill="#b91c1c" />
  <circle cx="452.3" cy="366.4" r="3" fill="#b91c1c" />
  <circle cx="320.0" cy="439.7" r="3" fill="#b91c1c" />
  <circle cx="190.5" cy="364.8" r="3" fill="#b91c1c" />
  <circle cx="174.1" cy="205.8" r="3" fill="#b91c1c" />
  <text class="label" x="320.0" y="52.0" text-anchor="middle">shamir</text>
  <text class="label" x="529.6" y="173.0" text-anchor="start">blakley</text>
  <text class="label" x="529.6" y="415.0" text-anchor="start">kothari</text>
  <text class="label" x="320.0" y="536.0" text-anchor="middle">karchmer_wigderson</text>
  <text class="label" x="110.4" y="415.0" text-anchor="end">brickell</text>
  <text class="label" x="110.4" y="173.0" text-anchor="end">massey</text>
  <text class="small" x="324.0" y="253.3">3k</text>
  <text class="small" x="324.0" y="216.7">10k</text>
  <text class="small" x="324.0" y="180.0">32k</text>
  <text class="small" x="324.0" y="143.3">100k</text>
  <text class="small" x="324.0" y="106.7">316k</text>
  <text class="small" x="324.0" y="70.0">1.0M</text>
  <text class="label" x="20" y="630" font-weight="bold">Threshold schemes: split + reconstruct (ops/sec, log scale)</text>
  <text class="small" x="20" y="645">k=3, n=5; per-axis = scheme; per-polygon = secret-size (ChaCha20Rng, ARM64 release build)</text>
  <rect x="20.0" y="680.0" width="14" height="14" fill="#0f766e" rx="2" />
  <text class="small" x="40.0" y="691.0">128-bit</text>
  <rect x="120.0" y="680.0" width="14" height="14" fill="#1d4ed8" rx="2" />
  <text class="small" x="140.0" y="691.0">256-bit</text>
  <rect x="220.0" y="680.0" width="14" height="14" fill="#b45309" rx="2" />
  <text class="small" x="240.0" y="691.0">512-bit</text>
  <rect x="320.0" y="680.0" width="14" height="14" fill="#b91c1c" rx="2" />
  <text class="small" x="340.0" y="691.0">1024-bit</text>
</svg>
